<svg width="61" height="60" viewBox="0 0 61 60" fill="none" xmlns="http://www.w3.org/2000/svg">
<path d="M30.124 58.5062C36.2896 58.5062 41.6236 55.3059 46.2786 51.9534C53.4608 46.7808 58.5124 39.5524 58.5124 30C58.5124 22.7228 55.2776 16.4896 50.8084 11.4523C45.609 5.59183 38.5553 1.49377 30.124 1.49377C22.1739 1.49377 14.8282 3.85084 9.67472 9.13853C4.66489 14.2788 1.73554 22.2395 1.73554 30C1.73554 31.8624 0.181713 42.5013 6.24275 49.4906C11.6598 55.7372 24.3822 58.5062 30.124 58.5062Z" stroke="#002E8C" stroke-width="3"/>
<path d="M31.5039 37H29.6875V24.959L26.0449 26.2969V24.6562L31.2207 22.7129H31.5039V37Z" fill="#002E8C"/>
</svg>
