<svg width="1141" height="591" viewBox="0 0 1141 591" fill="none" xmlns="http://www.w3.org/2000/svg">
<path fill-rule="evenodd" clip-rule="evenodd" d="M5.97414 6.04892C94.4782 13.7177 147.756 17.8122 165.807 18.3322C192.884 19.1123 311.076 9.92551 344.387 9.92551C377.698 9.92551 549.376 0 583.669 0C617.963 0 890.768 9.92551 924.275 9.92551C946.613 9.92551 1018.53 6.61701 1140.01 0C1125.33 84.3744 1117.99 132.655 1117.99 144.841C1117.99 163.121 1138.94 225.467 1140.01 252.957C1141.08 280.448 1123.57 407.02 1123.57 433.941C1123.57 451.889 1127.07 501.309 1134.09 582.201C899.961 564.102 769.246 555.053 741.944 555.053C700.993 555.053 509.043 589.215 476.864 590.004C444.685 590.793 285.505 563.809 244.066 563.809C216.441 563.809 135.09 572.541 0.0137193 590.004C7.77025 511.143 11.6485 462.201 11.6485 443.179C11.6485 414.646 -0.46312 292.824 0.0137193 268.499C0.490559 244.174 17.4968 165.554 17.4968 144.841C17.4968 131.033 13.6559 84.7685 5.97414 6.04892Z" fill="#FFEEF2"/>
</svg>
