<svg width="60" height="60" viewBox="0 0 60 60" fill="none" xmlns="http://www.w3.org/2000/svg">
<path d="M30.1239 58.5062C36.2895 58.5062 41.6236 55.3059 46.2786 51.9534C53.4608 46.7808 58.5124 39.5524 58.5124 30C58.5124 22.7228 55.2775 16.4896 50.8084 11.4523C45.6089 5.59183 38.5553 1.49377 30.1239 1.49377C22.1739 1.49377 14.8282 3.85084 9.67469 9.13853C4.66486 14.2788 1.73551 22.2395 1.73551 30C1.73551 31.8624 0.181682 42.5013 6.24272 49.4906C11.6597 55.7372 24.3822 58.5062 30.1239 58.5062Z" stroke="#002E8C" stroke-width="2"/>
<path d="M34.8828 37H25.5664V35.7012L30.4883 30.2324C31.2174 29.4056 31.7188 28.735 31.9922 28.2207C32.2721 27.6999 32.4121 27.1628 32.4121 26.6094C32.4121 25.8672 32.1875 25.2585 31.7383 24.7832C31.2891 24.3079 30.6901 24.0703 29.9414 24.0703C29.043 24.0703 28.3431 24.3275 27.8418 24.8418C27.347 25.3496 27.0996 26.0592 27.0996 26.9707H25.293C25.293 25.6621 25.7129 24.6042 26.5527 23.7969C27.3991 22.9896 28.5286 22.5859 29.9414 22.5859C31.263 22.5859 32.3079 22.9342 33.0762 23.6309C33.8444 24.321 34.2285 25.2422 34.2285 26.3945C34.2285 27.7943 33.3366 29.4609 31.5527 31.3945L27.7441 35.5254H34.8828V37Z" fill="#002E8C"/>
</svg>
