<svg width="524" height="299" viewBox="0 0 524 299" fill="none" xmlns="http://www.w3.org/2000/svg">
<path fill-rule="evenodd" clip-rule="evenodd" d="M3.09604 295.931C21.2745 292.56 34.5092 290.742 42.8001 290.478C55.2364 290.083 133.5 295.931 148.8 295.931C164.099 295.931 252.68 298.995 268.431 298.995C284.182 298.995 357.476 293.967 372.866 293.967C383.126 293.967 433.49 295.643 523.96 298.995C517.217 256.238 513.845 231.772 513.845 225.597C513.845 216.333 523.469 184.739 523.96 170.808C524.451 156.877 516.405 92.735 516.405 79.092C516.405 69.9967 518.017 44.9527 521.239 3.95999C442.097 8.79682 396.256 11.2152 383.717 11.2152C364.908 11.2152 305.769 2.28071 290.989 1.88086C276.209 1.48101 129.709 3.95999 110.676 3.95999C97.9879 3.95999 61.2153 2.6418 0.358413 0.00540161C3.92098 39.9694 5.70227 64.7712 5.70227 74.4108C5.70227 88.8703 0.1394 150.605 0.358413 162.932C0.577426 175.259 8.38839 215.1 8.38839 225.597C8.38839 232.595 6.62428 256.039 3.09604 295.931Z" fill="white"/>
</svg>
