<svg width="87" height="99" viewBox="0 0 87 99" fill="none" xmlns="http://www.w3.org/2000/svg">
<path d="M50.8429 52.8889C60.707 55.0754 64.4884 58.3066 62.1872 62.5825C59.9254 66.785 57.3919 63.1631 59.4104 60.8562C61.429 58.5492 65.9912 60.0972 70.4664 65.7628C75.2682 71.8418 79.6913 74.2713 83.7356 73.0512" stroke="#FFC8C8" stroke-width="3" stroke-linecap="round"/>
<path d="M41.4534 40.3909L52.4876 34.3576C53.1772 33.9805 52.892 32.9479 52.1241 32.922L5.22017 27.5178C4.56726 27.4291 4.13516 28.2596 4.57203 28.7636L27.0278 60.6096C27.4003 61.0002 28.1682 61.0261 28.3198 60.4974L36.9069 46.4425L45.0089 50.6293C45.6757 51.0076 46.4664 50.2781 46.0801 49.5979L41.4534 40.3909ZM40.221 39.2819L12.2921 29.8908L39.283 32.0669L49.5311 34.1913L45.2914 37.3672L40.221 39.2819ZM7.72644 30.6044C11.0658 32.2009 14.6362 34.0285 18.4377 36.0873C22.2391 38.1461 27.951 41.3456 35.5734 45.6859L32.1229 52.5151L27.5839 58.6713L17.7992 46.1106L7.72644 30.6044ZM36.7185 45.5121L6.75734 28.7158L29.3223 36.7293L39.8166 40.6916L42.2935 44.0299L43.5925 48.1353L36.7185 45.5121Z" fill="#FFC8C8" stroke="#FFC8C8"/>
</svg>
