<svg width="87" height="99" viewBox="0 0 87 99" fill="none" xmlns="http://www.w3.org/2000/svg">
<path d="M36.148 52.8703C26.2763 55.078 22.4984 58.3129 24.8141 62.575C27.0902 66.764 29.6175 63.1423 27.5901 60.8448C25.5626 58.5472 20.9984 60.104 16.5322 65.7706C11.7401 71.8506 7.31746 74.2869 3.26436 73.0795" stroke="#FFC8C8" stroke-width="3" stroke-linecap="round"/>
<path d="M45.55 40.4158L34.4946 34.4034C33.8037 34.0276 34.0867 32.9938 34.855 32.9662L81.778 27.4541C82.4312 27.3639 82.8654 28.1939 82.4294 28.6992L60.0314 60.6148C59.6596 61.0065 58.8912 61.0341 58.7383 60.5055L50.1134 46.461L42.0155 50.6684C41.3491 51.0484 40.5562 50.3202 40.9412 49.6388L45.55 40.4158ZM46.7807 39.3034L74.7068 29.8443L47.7028 32.0819L37.4527 34.2305L41.7025 37.3988L46.7807 39.3034ZM79.2771 30.5482C75.9391 32.153 72.3705 33.9897 68.5713 36.0583C64.772 38.1268 59.0636 41.341 51.446 45.701L54.9144 52.5267L59.4705 58.6766L69.2331 46.0863L79.2771 30.5482ZM50.2998 45.5296L80.2426 28.6562L57.6808 36.7249L47.1886 40.7131L44.7176 44.059L43.4272 48.1698L50.2998 45.5296Z" fill="#FFC8C8" stroke="#FFC8C8"/>
</svg>
