<svg width="38" height="38" viewBox="0 0 38 38" fill="none" xmlns="http://www.w3.org/2000/svg">
<g clip-path="url(#clip0_2_260)">
<path d="M10.0969 37.2781C10.5083 36.8053 10.8884 36.3084 11.2908 35.8293C13.0704 33.7085 15.1097 31.8632 17.2977 30.2553C17.478 30.2683 17.597 30.2447 17.6711 30.2874C18.9427 31.0158 20.2049 31.7605 21.4798 32.4843C22.1789 32.881 22.8989 33.2473 23.608 33.6283C24.9027 34.3253 26.2309 34.9846 27.3115 35.9645C28.1142 36.6925 29.2649 36.6732 30.195 37.1176C30.2684 37.1522 30.3915 37.1068 30.4906 37.0877C30.922 37.004 31.2278 36.5761 31.1156 36.1975C31.0762 36.0636 30.9928 35.946 30.9422 35.8153C29.8844 33.0869 28.9164 30.3245 28.2744 27.431C28.13 26.7799 27.9861 26.1294 27.8063 25.4906C27.54 24.5416 27.5982 24.2966 28.4785 23.5644C29.973 22.3222 31.446 21.0644 32.6308 19.5154C33.1018 18.8993 33.6403 18.3226 34.1808 17.7569C34.5031 17.4213 34.8796 17.1319 35.247 16.8412C35.5311 16.6169 35.8384 16.4224 36.1856 16.181C36.17 15.9424 36.184 15.839 36.1541 15.7546C35.7568 14.6218 35.3487 14.3859 34.0841 14.5363C33.731 14.5779 33.3791 14.5942 33.0281 14.636C30.5688 14.9305 28.1093 14.976 25.6491 15.5059C24.4579 15.7627 24.1752 15.5329 23.8358 14.4473C23.2447 12.555 22.6289 10.671 22.0237 8.78437C21.9791 8.64886 21.9401 8.51172 21.8868 8.38131C21.1073 6.46219 20.3346 4.54049 19.5362 2.63089C19.3951 2.29331 19.205 1.93913 18.9277 1.71857C18.2657 1.19474 17.4398 1.33605 16.6567 1.68506C16.0394 1.96094 16.222 2.52391 16.1703 3.00114C16.0961 3.68571 15.9554 4.36982 15.8727 5.05357C15.7898 5.73353 15.855 6.43423 15.6523 7.08807C15.4225 7.83271 15.382 8.54429 15.3634 9.27688C15.3506 9.76434 15.3719 10.2756 15.2181 10.7424C14.9427 11.5745 14.8977 12.3963 14.8324 13.2259C14.8127 13.4708 14.791 13.7182 14.74 13.9611C14.592 14.6667 14.1259 15.1256 13.4481 15.3865C13.2082 15.4789 12.9533 15.5419 12.7033 15.5804C10.1455 15.975 7.58771 16.422 5.02593 16.5241C3.9243 16.5687 2.82517 16.5676 1.72344 16.6035C1.17329 16.6223 0.850566 16.8672 0.665313 17.3537C0.52329 17.7266 0.623169 17.9706 1.1464 18.2451C1.73175 18.5537 2.36046 18.7902 2.95034 19.0922C4.17596 19.7211 5.3999 20.3552 6.6014 21.02C7.88889 21.7326 9.09629 22.5498 10.1726 23.5353C10.5008 23.8358 10.7265 24.1621 10.6276 24.6601C10.3261 26.1765 10.0973 27.701 9.70802 29.2041C9.37092 30.5059 8.86023 31.7835 8.41102 33.0675C8.02962 34.1599 7.69767 35.2646 7.16304 36.3201C6.84887 36.941 7.04472 37.468 7.6159 37.7822C8.34682 38.1852 9.50602 37.9583 10.0969 37.2781Z" fill="#F5A9AB"/>
</g>
<defs>
<clipPath id="clip0_2_260">
<rect width="38" height="38" fill="white"/>
</clipPath>
</defs>
</svg>
